<svg width="52" height="20" viewBox="0 0 52 20" fill="none" xmlns="http://www.w3.org/2000/svg">
<path d="M26.2935 14.1C26.109 14.1 25.784 14.016 25.9811 13.8C26.1971 13.56 26.5976 13.484 26.9079 13.462C30.9044 13.168 35.6892 13.018 40.3566 13.018C43.7932 13.018 47.1648 13.1 50.1108 13.266C50.3981 13.282 50.4274 13.49 50.2135 13.642C49.9661 13.818 49.639 13.896 49.3308 13.896C49.2973 13.896 49.2616 13.896 49.2281 13.894C46.3785 13.732 43.1202 13.654 39.7905 13.654C35.1231 13.654 30.3215 13.808 26.3292 14.102C26.3187 14.098 26.3061 14.1 26.2935 14.1Z" fill="#E3AC00"/>
<path d="M10.3833 16.852C10.2239 16.852 10.075 16.816 10.0436 16.702C9.97438 16.454 10.5133 16.306 10.6663 16.258C14.3441 15.13 18.1895 14.366 22.0266 13.958C22.0644 13.954 22.1504 13.946 22.2426 13.946C22.4376 13.946 22.6704 13.982 22.6033 14.16C22.5089 14.414 22.0392 14.54 21.7981 14.564C18.0826 14.96 14.3734 15.696 10.8152 16.788C10.7376 16.812 10.5531 16.852 10.3833 16.852Z" fill="#E3AC00"/>
<path fill-rule="evenodd" clip-rule="evenodd" d="M33.8629 6.97799C33.519 7.19399 33.3869 7.42599 33.4981 7.63799C33.6029 7.80599 33.8231 7.90999 34.0747 7.90799C34.1732 7.90799 34.2697 7.89199 34.364 7.85799C34.6198 7.76799 34.7834 7.58399 34.7792 7.39399C34.7918 7.22399 34.7205 7.10999 34.6597 7.04799C34.559 6.94399 34.3976 6.88199 34.2173 6.88399C34.0873 6.88599 33.9573 6.91999 33.8629 6.97799Z" fill="#13427A"/>
<path fill-rule="evenodd" clip-rule="evenodd" d="M51.914 10.006C51.8679 9.87199 51.6813 9.79599 51.4024 9.798C51.306 9.798 51.199 9.80799 51.0858 9.826C50.0228 10.014 49.7019 10.074 48.6263 10.312C48.2803 10.392 48.0161 10.448 47.7813 10.498C47.3032 10.602 46.9594 10.676 46.3073 10.85C46.1773 10.886 44.915 11.16 44.8542 11.172C44.806 11.18 44.6319 11.128 44.8458 11.028C45.1415 10.892 45.2211 10.878 46.0536 10.472C46.9761 10.042 47.9805 9.406 48.7374 8.77199C49.3161 8.28599 49.2092 7.66399 48.6661 7.536C47.1376 7.17199 45.6153 8.42599 45.0136 9.014C44.7787 9.24599 44.3195 9.80399 44.0574 10.42C43.6989 10.55 42.8602 10.832 42.1871 10.9C42.0089 10.918 41.7761 10.872 41.6839 10.722C41.4952 10.418 41.7468 9.502 43.3634 8.248C43.5773 8.08 44.4579 7.42 45.3532 6.74799C47.8148 6.572 49.9494 6.45799 51.0208 6.48199C51.3647 6.48999 51.5303 6.228 51.6016 6.07C51.7086 5.834 51.48 5.71399 51.2913 5.718C50.1276 5.75 48.3034 5.87 46.3198 6.024C46.8881 5.6 47.3473 5.25999 47.4794 5.166C47.6324 5.012 47.6597 4.82599 47.5569 4.66799C47.4731 4.538 47.32 4.462 47.1481 4.462C46.9971 4.46399 46.8398 4.522 46.6931 4.634C46.4771 4.79399 45.7432 5.39199 44.7598 6.14799C43.2334 6.27399 41.6881 6.40999 40.3315 6.53399C41.3316 5.74599 42.2479 5.11599 42.5226 4.928C42.9084 4.66199 42.9 4.324 42.7952 4.212C42.7176 4.128 42.6086 4.086 42.4702 4.086C42.3213 4.086 42.1158 4.106 41.8998 4.24C41.5308 4.466 40.3336 5.486 38.8847 6.666C37.4086 6.804 36.3518 6.90999 36.119 6.93599C35.9597 6.95399 35.9429 7.17399 36.0079 7.31999C36.0624 7.44199 36.1966 7.536 36.2826 7.52599C36.8319 7.47 37.4169 7.41399 38.0271 7.35599C35.8989 9.05799 33.496 10.834 32.3889 10.964C32.3239 10.942 32.2819 10.914 32.2798 10.878C32.3176 10.516 33.3345 8.92999 33.5128 8.68999L33.519 8.68199L33.5232 8.672C33.5715 8.50999 33.5442 8.356 33.4436 8.236C33.3429 8.11199 33.1752 8.042 32.9865 8.042C32.8523 8.042 32.716 8.08 32.5923 8.146C31.8773 8.46999 31.244 8.79999 30.6821 9.09199C29.9042 9.49599 29.2857 9.81999 28.7698 9.962L28.7447 9.948L28.7594 9.93799C30.1537 9.14199 31.5523 8.18799 32.5986 7.31999L32.6468 7.27599C33.6281 6.378 34.1187 5.928 34.9784 4.85C35.4628 4.242 35.641 3.846 35.5948 3.482C35.5697 3.302 35.5026 3.16199 35.3936 3.064C35.2866 2.97 35.144 2.92199 34.97 2.92199C34.5318 2.924 34.0097 3.22399 33.6952 3.482C33.5211 3.624 33.3492 3.762 33.1794 3.902C32.4581 4.486 31.7766 5.036 31.1371 5.656C30.3194 6.438 29.5457 7.17599 28.8831 7.97399C28.6357 8.21799 28.4469 8.46799 28.2666 8.712C28.1031 8.93 27.95 9.13599 27.7592 9.33C27.7068 9.31999 27.6565 9.316 27.6103 9.316C27.386 9.316 27.2015 9.41999 27.1008 9.60199C27.04 9.71399 27.0211 9.844 27.0484 9.94199C27.0107 9.98399 26.975 10.026 26.9478 10.062C26.4508 10.496 25.891 10.96 25.5073 11.104C25.4674 11.12 25.4255 11.126 25.3836 11.126C25.2955 11.126 25.2095 11.094 25.1529 11.036C25.0942 10.974 25.0648 10.888 25.069 10.784C25.0816 10.524 25.2347 10.098 25.6184 9.748C25.8637 9.524 26.0461 9.32599 26.1803 9.18199C26.2286 9.12999 26.2705 9.08399 26.3103 9.04399C26.7653 8.57199 26.9582 8.36999 27.0463 8.15199C27.1113 7.98999 27.0882 7.81799 26.9792 7.67799C26.8869 7.55999 26.7465 7.48799 26.6102 7.48799C26.5011 7.48799 26.4047 7.53399 26.3292 7.61999C26.2244 7.73999 26.1258 7.86999 26.0189 8.00999C25.7421 8.37399 25.4255 8.78999 24.8342 9.25999C24.3981 9.60599 22.6179 10.688 22.0308 10.69C21.9973 10.69 21.97 10.686 21.9532 10.68C22.1587 10.036 22.7857 9.318 23.5615 8.844L23.574 8.83599C24.5428 8.24 25.1844 7.84799 26.8136 7.38199C26.9666 7.33799 26.9876 7.22599 26.954 7.13799C26.8974 6.97999 26.6647 6.81799 26.3753 6.81799C26.3145 6.81999 26.2537 6.82599 26.195 6.83999C24.4631 7.27599 23.4231 7.85199 22.3223 8.45999L22.1503 8.554C21.7666 8.738 21.2508 9.028 20.7518 9.30799C20.5044 9.446 20.2632 9.58199 20.0452 9.70199L21.406 8.14999L21.4773 8.028L21.4794 8.01799C21.5045 7.88599 21.4878 7.77399 21.4248 7.68199C21.3619 7.58799 21.2571 7.51599 21.1124 7.46999C21.0684 7.45199 21.0495 7.44199 21.0411 7.43599C21.104 7.28999 21.0831 7.118 20.9824 6.98C20.8902 6.85199 20.7476 6.77599 20.6029 6.77599C20.5295 6.77599 20.4582 6.79599 20.3911 6.83399C19.4665 7.35799 16.2269 9.182 16.1347 9.24C16.6819 8.60199 17.0216 8.06199 17.5458 7.376C17.8394 6.99 17.2481 6.72599 16.6002 6.98799C16.6002 6.98799 14.9815 7.79799 14.4195 8.01999C10.4126 9.60399 5.35098 11.334 2.43437 11.88C1.89969 11.98 1.15953 11.814 1.57469 11.128C2.86421 8.99799 6.26727 6.89399 6.98646 6.43399C9.82759 4.59599 14.0379 2.57599 17.3865 1.54C19.3616 0.929995 22.8737 0.285995 21.0579 2.09599C20.2926 2.858 19.6174 3.124 18.546 3.788C17.7744 4.268 17.8121 5.20799 18.9968 4.716C19.9215 4.332 21.3808 3.114 21.9532 2.4C24.3079 -0.532005 20.8357 -0.448005 16.6694 0.899995C13.4529 1.94 8.86727 4.07599 6.13937 5.83C3.83711 7.31399 1.62711 9.094 0.425658 11.054C0.228561 11.376 0.0440448 11.678 0.0817867 12.122C0.153077 12.906 0.962432 13.242 2.18695 13.028C5.6655 12.424 10.486 10.46 14.6669 8.81999C15.1471 8.63199 15.1597 8.95599 15.1073 9.04399C14.8934 9.41599 14.495 9.732 13.6773 10.448C12.2305 11.056 10.8802 11.736 9.50679 12.35C6.91727 13.536 4.34872 14.354 2.57904 16.052C2.28969 16.324 0.578722 18.058 1.80324 18.674C2.3463 18.952 3.40937 18.632 3.89792 18.46C6.40985 17.344 8.70162 15.962 10.855 14.186C12.1047 13.152 14.2245 11.264 14.2245 11.264C14.2245 11.264 15.8328 10.34 16.7931 9.84999C17.9966 9.23599 19.0303 8.606 20.1668 7.92199L20.28 7.98199C19.3784 8.86799 18.5523 9.81599 17.9421 10.67C17.8457 10.88 17.8582 11.08 17.9757 11.236C18.0868 11.384 18.2776 11.468 18.4978 11.468C18.7284 11.468 18.9758 11.378 19.2128 11.214C19.3826 11.106 19.5566 10.992 19.7348 10.878C20.2863 10.52 20.8965 10.126 21.4857 9.79999C21.2886 10.004 21.1628 10.154 21.1019 10.252C20.9678 10.42 20.7581 10.748 20.8566 11.05C20.9028 11.192 21.0076 11.31 21.169 11.398C21.3473 11.5 21.5611 11.55 21.8065 11.55C22.4061 11.55 23.1882 11.252 24.2576 10.62C24.2534 11.046 24.4463 11.55 24.8971 11.75C25.0019 11.796 25.134 11.822 25.2892 11.82C25.3668 11.82 25.4465 11.814 25.5345 11.802C25.4045 11.954 25.2578 12.122 25.0921 12.308L21.5989 16.25C21.3808 16.532 21.4563 16.744 21.5213 16.846C21.624 17.006 21.8295 17.106 22.0581 17.106C22.3055 17.106 22.5361 16.99 22.6913 16.788C24.2681 14.712 25.9245 12.672 27.6124 10.72C27.9081 10.832 28.1995 10.886 28.5036 10.888C28.9145 10.858 30.0216 10.252 31.0931 9.66799C31.374 9.514 31.6445 9.36599 31.8982 9.23199L31.8626 9.30599C31.569 9.87399 31.4286 10.192 31.1748 10.852L31.0679 11.216C31.0134 11.476 31.0427 11.664 31.156 11.792C31.1979 11.842 31.2503 11.878 31.3132 11.904C31.4223 11.96 31.5711 11.996 31.7724 12.004C32.999 12.05 34.32 11.042 35.3265 10.454C35.7815 10.186 36.119 9.894 36.1128 9.908C36.0205 10.128 35.7563 11.442 37.0395 11.5C38.4905 11.564 40.3503 10.312 40.8494 10.056C40.8494 10.056 40.2476 11.3 41.231 11.714C41.751 11.932 43.1558 11.592 43.8603 11.354C43.8624 11.376 43.8624 11.398 43.8645 11.42C43.9065 11.794 44.3048 12.046 45.1813 11.804C46.4079 11.464 47.2613 11.292 47.9427 11.134C48.36 11.04 48.7186 10.956 49.0624 10.868C49.5971 10.752 49.9787 10.67 50.3708 10.59C50.7231 10.516 51.0816 10.442 51.5681 10.336C51.8365 10.262 51.9602 10.142 51.914 10.006ZM47.8736 8.24C47.9973 8.21399 48.1021 8.19199 48.1713 8.19199H48.1881C48.1839 8.20399 48.1797 8.22199 48.1671 8.24599C47.3892 8.95 46.2171 9.656 45.2568 10.008C45.5357 9.35999 46.9615 8.50599 47.8736 8.24ZM29.705 8.42799C30.2963 7.62799 31.0826 6.876 31.8437 6.152L31.9486 6.054C32.7097 5.302 33.4016 4.654 34.299 3.932C34.3997 3.83599 34.5674 3.734 34.6786 3.734C34.6953 3.734 34.71 3.736 34.7226 3.74C34.7394 3.748 34.7457 3.754 34.7457 3.754C34.7687 3.794 34.6639 3.95 34.6178 4.018L34.5947 4.052C33.9132 5.062 32.7621 6.11999 31.9171 6.82799L31.6927 7.01399C31.07 7.52999 30.6192 7.90199 29.7637 8.56399C29.6736 8.62599 29.5918 8.67 29.5331 8.694C29.5561 8.644 29.6065 8.55999 29.705 8.42799ZM9.74372 13.924C9.42711 14.124 3.86856 18.218 2.63356 18.054C2.00033 17.734 2.96066 16.59 4.56679 15.578C6.46017 14.38 9.16082 13.3 9.80872 13.042C10.5048 12.722 11.4966 12.302 12.2242 11.998C11.5448 12.656 10.4944 13.332 9.74372 13.924ZM37.7965 10.42C37.5721 10.476 37.1192 10.396 37.1528 10.12C37.2115 9.35999 38.2997 8.236 39.4865 7.226C40.8976 7.09799 42.3863 6.974 43.8184 6.862C41.86 8.318 39.369 10.008 37.7965 10.42Z" fill="#13427A"/>
<path fill-rule="evenodd" clip-rule="evenodd" d="M50.0731 19.352V19.024H50.354V19.352H50.0731ZM49.3161 19.352V16.466H49.551V19.352H49.3161ZM48.9513 18.716C48.9492 18.938 48.8989 19.108 48.8024 19.226C48.706 19.344 48.5655 19.402 48.3852 19.402C48.1923 19.402 48.0497 19.314 47.9595 19.138C47.8673 18.962 47.8211 18.688 47.8211 18.322C47.8211 17.954 47.8673 17.68 47.9595 17.502C48.0518 17.324 48.1923 17.236 48.3852 17.236C48.5739 17.236 48.7165 17.324 48.8129 17.5C48.9094 17.676 48.9597 17.934 48.9597 18.276V18.34H48.0539V18.372C48.0539 18.662 48.0832 18.874 48.1399 19.006C48.1965 19.14 48.2866 19.206 48.4124 19.206C48.5131 19.206 48.5907 19.164 48.6431 19.08C48.6955 18.996 48.7228 18.874 48.7228 18.714L48.9513 18.716ZM48.0539 18.148L48.7249 18.146C48.7186 17.912 48.6871 17.734 48.6326 17.612C48.576 17.49 48.5005 17.428 48.3999 17.428C48.2929 17.428 48.2111 17.486 48.1545 17.604C48.0979 17.724 48.0644 17.904 48.0539 18.148ZM46.4247 20V17.272H46.6553V17.466C46.7099 17.39 46.7686 17.332 46.8294 17.296C46.8902 17.258 46.9573 17.24 47.0286 17.24C47.1879 17.24 47.3116 17.33 47.3934 17.512C47.4752 17.694 47.515 17.966 47.515 18.33C47.515 18.686 47.4752 18.948 47.3955 19.118C47.3158 19.288 47.1942 19.374 47.0286 19.374C46.9594 19.374 46.8923 19.358 46.8336 19.324C46.7728 19.29 46.712 19.238 46.6574 19.168V20H46.4247ZM46.6553 18.902C46.7036 18.99 46.756 19.058 46.8126 19.106C46.8692 19.154 46.9237 19.178 46.9803 19.178C47.0831 19.178 47.1586 19.112 47.2026 18.982C47.2466 18.852 47.2697 18.636 47.2697 18.332C47.2697 18.028 47.2466 17.804 47.2005 17.666C47.1544 17.526 47.0831 17.458 46.9845 17.458C46.9237 17.458 46.865 17.482 46.8105 17.532C46.7539 17.582 46.7036 17.656 46.6532 17.754V18.902H46.6553ZM45.7244 19.352L45.6929 19.16C45.6321 19.23 45.565 19.284 45.4874 19.322C45.4099 19.36 45.3302 19.378 45.2463 19.378C45.1142 19.378 45.0094 19.332 44.9318 19.238C44.8542 19.146 44.8144 19.018 44.8144 18.86C44.8144 18.674 44.8836 18.51 45.024 18.368C45.1624 18.226 45.3868 18.09 45.695 17.962V17.782C45.695 17.676 45.672 17.592 45.6258 17.53C45.5776 17.468 45.5147 17.438 45.4329 17.438C45.3449 17.438 45.2715 17.478 45.2086 17.558C45.1478 17.638 45.11 17.742 45.0974 17.872H44.8815C44.8982 17.672 44.957 17.516 45.0555 17.404C45.154 17.294 45.284 17.238 45.4434 17.238C45.6007 17.238 45.7202 17.296 45.802 17.416C45.8837 17.534 45.9236 17.708 45.9236 17.936V18.954C45.9236 19.044 45.9257 19.12 45.9299 19.18C45.934 19.242 45.9424 19.298 45.9508 19.35H45.7244V19.352ZM45.6929 18.926V18.182C45.4749 18.278 45.3134 18.382 45.2086 18.492C45.1037 18.602 45.0513 18.726 45.0513 18.86C45.0513 18.956 45.0744 19.032 45.1205 19.088C45.1645 19.144 45.2253 19.172 45.3029 19.172C45.37 19.172 45.435 19.152 45.4979 19.11C45.5587 19.074 45.6237 19.01 45.6929 18.926ZM43.4326 20V17.272H43.6632V17.466C43.7178 17.39 43.7765 17.332 43.8373 17.296C43.8981 17.258 43.9652 17.24 44.0344 17.24C44.1937 17.24 44.3174 17.33 44.3992 17.512C44.481 17.694 44.5208 17.966 44.5208 18.33C44.5208 18.686 44.481 18.948 44.4013 19.118C44.3216 19.288 44.2 19.374 44.0344 19.374C43.9652 19.374 43.9002 19.358 43.8394 19.324C43.7786 19.29 43.7178 19.238 43.6632 19.168V20H43.4326ZM43.6632 18.902C43.7115 18.99 43.7639 19.058 43.8205 19.106C43.8771 19.154 43.9316 19.178 43.9882 19.178C44.091 19.178 44.1665 19.112 44.2105 18.982C44.2566 18.852 44.2776 18.636 44.2776 18.332C44.2776 18.028 44.2545 17.804 44.2084 17.666C44.1623 17.526 44.091 17.458 43.9924 17.458C43.9316 17.458 43.875 17.482 43.8184 17.532C43.7618 17.582 43.7115 17.656 43.6611 17.754V18.902H43.6632ZM41.6545 17.234C41.8411 17.234 41.9816 17.324 42.0739 17.502C42.1661 17.682 42.2123 17.954 42.2123 18.32C42.2123 18.684 42.1661 18.954 42.0739 19.134C41.9816 19.312 41.8411 19.402 41.6524 19.402C41.4595 19.402 41.3169 19.314 41.2268 19.138C41.1345 18.962 41.0884 18.688 41.0884 18.322C41.0884 17.954 41.1345 17.68 41.2268 17.502C41.3211 17.322 41.4637 17.234 41.6545 17.234ZM41.6545 17.436C41.5392 17.436 41.4553 17.502 41.4071 17.636C41.3589 17.77 41.3337 17.998 41.3337 18.32C41.3337 18.642 41.3589 18.868 41.4071 19.002C41.4553 19.136 41.5392 19.202 41.6545 19.202C41.7636 19.202 41.8432 19.132 41.8936 18.992C41.9439 18.852 41.969 18.628 41.969 18.32C41.969 18.012 41.9439 17.786 41.8936 17.646C41.8432 17.506 41.7636 17.436 41.6545 17.436ZM40.4384 18.91V17.744C40.386 17.656 40.3315 17.588 40.2749 17.542C40.2182 17.496 40.1637 17.472 40.1113 17.472C40.0065 17.472 39.9289 17.534 39.8828 17.66C39.8366 17.786 39.8136 17.998 39.8136 18.298C39.8136 18.614 39.8366 18.842 39.8828 18.982C39.9289 19.122 40.0044 19.192 40.105 19.192C40.1637 19.192 40.2203 19.168 40.2769 19.12C40.3357 19.074 40.3881 19.004 40.4384 18.91ZM40.6711 19.352H40.5013L40.4594 19.174C40.4049 19.246 40.3461 19.3 40.2811 19.34C40.2161 19.38 40.1511 19.402 40.0882 19.402C39.9142 19.402 39.7863 19.31 39.7003 19.128C39.6144 18.946 39.5724 18.668 39.5724 18.298C39.5724 17.954 39.6144 17.694 39.7024 17.52C39.7884 17.344 39.9163 17.258 40.084 17.258C40.1449 17.258 40.2078 17.278 40.2707 17.32C40.3336 17.362 40.3902 17.418 40.4405 17.49V16.466H40.6732V19.352H40.6711ZM36.6579 19.352V17.28H36.8886V17.492C36.9557 17.412 37.0228 17.354 37.0899 17.314C37.1569 17.274 37.224 17.256 37.289 17.256C37.3729 17.256 37.4421 17.28 37.4987 17.328C37.5553 17.376 37.591 17.444 37.6078 17.53C37.6749 17.44 37.7461 17.372 37.8216 17.326C37.8971 17.28 37.9726 17.256 38.046 17.256C38.1655 17.256 38.2515 17.304 38.3081 17.4C38.3626 17.498 38.3899 17.65 38.3899 17.858V19.35H38.155V17.834C38.155 17.694 38.1424 17.598 38.1173 17.546C38.0921 17.492 38.0481 17.466 37.9852 17.466C37.9328 17.466 37.8782 17.488 37.8195 17.532C37.7608 17.578 37.7 17.646 37.6371 17.734V19.35H37.4086V17.834C37.4086 17.694 37.396 17.598 37.3687 17.546C37.3436 17.492 37.2995 17.466 37.2366 17.466C37.1863 17.466 37.1297 17.488 37.071 17.532C37.0123 17.578 36.9515 17.646 36.8886 17.734V19.35H36.6579V19.352ZM35.8381 16.332H36.0834L35.6431 17.014H35.4942L35.8381 16.332ZM36.2889 18.716C36.2868 18.938 36.2365 19.108 36.14 19.226C36.0436 19.344 35.9031 19.402 35.7228 19.402C35.5299 19.402 35.3873 19.314 35.2971 19.138C35.2049 18.962 35.1587 18.688 35.1587 18.322C35.1587 17.954 35.2049 17.68 35.2971 17.502C35.3894 17.324 35.5299 17.236 35.7228 17.236C35.9115 17.236 36.054 17.324 36.1505 17.5C36.2469 17.676 36.2973 17.934 36.2973 18.276V18.34H35.3915V18.372C35.3915 18.662 35.4208 18.874 35.4774 19.006C35.534 19.14 35.6242 19.206 35.75 19.206C35.8507 19.206 35.9282 19.164 35.9807 19.08C36.0331 18.996 36.0603 18.874 36.0603 18.714L36.2889 18.716ZM35.3936 18.148L36.0645 18.146C36.0582 17.912 36.0268 17.734 35.9723 17.612C35.9157 17.49 35.8402 17.428 35.7374 17.428C35.6305 17.428 35.5487 17.486 35.4921 17.604C35.4355 17.724 35.4019 17.904 35.3936 18.148ZM34.5024 19.352V16.466H34.7373V19.352H34.5024ZM33.8063 19.352L33.7749 19.16C33.714 19.23 33.6469 19.284 33.5694 19.322C33.4918 19.36 33.4121 19.378 33.3282 19.378C33.1961 19.378 33.0913 19.332 33.0137 19.238C32.9361 19.146 32.8963 19.018 32.8963 18.86C32.8963 18.674 32.9655 18.51 33.106 18.368C33.2444 18.226 33.4687 18.09 33.7769 17.962V17.782C33.7769 17.676 33.7539 17.592 33.7078 17.53C33.6595 17.468 33.5966 17.438 33.5148 17.438C33.4268 17.438 33.3513 17.478 33.2905 17.558C33.2297 17.638 33.1919 17.742 33.1794 17.872H32.9655C32.9823 17.672 33.041 17.516 33.1395 17.404C33.2381 17.294 33.3681 17.238 33.5274 17.238C33.6847 17.238 33.8042 17.296 33.886 17.416C33.9678 17.534 34.0076 17.708 34.0076 17.936V18.954C34.0076 19.044 34.0097 19.12 34.0139 19.18C34.0181 19.242 34.0265 19.298 34.0349 19.35H33.8063V19.352ZM33.7749 18.926V18.182C33.5568 18.278 33.3953 18.382 33.2905 18.492C33.1857 18.602 33.1332 18.726 33.1332 18.86C33.1332 18.956 33.1563 19.032 33.2024 19.088C33.2486 19.144 33.3073 19.172 33.3849 19.172C33.4519 19.172 33.5169 19.152 33.5798 19.11C33.6407 19.074 33.7078 19.01 33.7749 18.926ZM31.2461 17.234C31.4328 17.234 31.5732 17.324 31.6655 17.502C31.7578 17.682 31.8039 17.954 31.8039 18.32C31.8039 18.684 31.7578 18.954 31.6655 19.134C31.5732 19.312 31.4328 19.402 31.244 19.402C31.0511 19.402 30.9086 19.314 30.8184 19.138C30.7261 18.962 30.68 18.688 30.68 18.322C30.68 17.954 30.7261 17.68 30.8184 17.502C30.9148 17.322 31.0553 17.234 31.2461 17.234ZM31.2461 17.436C31.1308 17.436 31.049 17.502 30.9987 17.636C30.9505 17.77 30.9253 17.998 30.9253 18.32C30.9253 18.642 30.9505 18.868 30.9987 19.002C31.0469 19.136 31.1308 19.202 31.2461 19.202C31.3552 19.202 31.4349 19.132 31.4852 18.992C31.5355 18.852 31.5607 18.628 31.5607 18.32C31.5607 18.012 31.5355 17.786 31.4852 17.646C31.4349 17.506 31.3552 17.436 31.2461 17.436ZM30.1286 18.906C30.1286 19.008 30.1432 19.08 30.1747 19.122C30.204 19.164 30.2544 19.184 30.3257 19.184C30.3592 19.184 30.3907 19.18 30.42 19.174C30.4494 19.168 30.4808 19.158 30.5144 19.144V19.34C30.4724 19.352 30.4326 19.362 30.3928 19.37C30.3529 19.376 30.3173 19.38 30.2837 19.38C30.1432 19.38 30.0426 19.344 29.9818 19.272C29.9231 19.2 29.8937 19.074 29.8937 18.892V17.468H29.6086V17.28H29.8937V16.614H30.1286V17.28H30.5144V17.466H30.1286V18.906ZM29.0948 19.352V17.28H29.3297V19.352H29.0948ZM29.0739 16.792V16.524H29.3507V16.792H29.0739ZM28.5623 17.28V19.352H28.3337V19.14C28.2666 19.22 28.1974 19.28 28.1282 19.32C28.0569 19.36 27.9836 19.38 27.9102 19.38C27.7865 19.38 27.6963 19.332 27.6397 19.236C27.5831 19.14 27.5537 18.986 27.5537 18.774V17.28H27.7823V18.802C27.7823 18.938 27.7969 19.036 27.8242 19.088C27.8515 19.142 27.8976 19.17 27.9626 19.17C28.0213 19.17 28.0821 19.148 28.145 19.102C28.2058 19.056 28.2687 18.99 28.3316 18.902V17.28H28.5623ZM25.394 19.352V16.466H25.826L26.1636 18.298C26.1698 18.33 26.1782 18.398 26.1929 18.502C26.2055 18.606 26.2181 18.728 26.2349 18.868C26.2474 18.746 26.26 18.638 26.2726 18.538C26.2852 18.44 26.2957 18.356 26.3061 18.288L26.6458 16.464H27.0819V19.35H26.8261V16.598L26.3271 19.352H26.1342L25.6352 16.598V19.352H25.394Z" fill="#124279"/>
</svg>
